<?xml version="1.0" encoding="UTF-8" standalone="no"?>
<!-- Created with Inkscape (http://www.inkscape.org/) -->

<svg
   width="254mm"
   height="254mm"
   viewBox="0 0 254 254"
   version="1.1"
   id="svg1"
   xml:space="preserve"
   inkscape:version="1.3 (0e150ed6c4, 2023-07-21)"
   sodipodi:docname="vinyl4chartity_white.svg"
   xmlns:inkscape="http://www.inkscape.org/namespaces/inkscape"
   xmlns:sodipodi="http://sodipodi.sourceforge.net/DTD/sodipodi-0.dtd"
   xmlns="http://www.w3.org/2000/svg"
   xmlns:svg="http://www.w3.org/2000/svg"><sodipodi:namedview
     id="namedview1"
     pagecolor="#ffffff"
     bordercolor="#000000"
     borderopacity="0.25"
     inkscape:showpageshadow="2"
     inkscape:pageopacity="0.0"
     inkscape:pagecheckerboard="true"
     inkscape:deskcolor="#d1d1d1"
     inkscape:document-units="mm"
     inkscape:zoom="1"
     inkscape:cx="87.499998"
     inkscape:cy="608.49998"
     inkscape:window-width="3840"
     inkscape:window-height="2089"
     inkscape:window-x="-8"
     inkscape:window-y="-8"
     inkscape:window-maximized="1"
     inkscape:current-layer="layer2" /><defs
     id="defs1"><rect
       x="98.994949"
       y="492.85342"
       width="243.47414"
       height="245.16652"
       id="rect9" /></defs><g
     inkscape:groupmode="layer"
     id="layer2"
     inkscape:label="Layer 2"
     style="display:inline;opacity:1"><path
       id="circle3"
       style="display:inline;opacity:1;fill:#ffffff;fill-opacity:1;stroke:none;stroke-width:0.642074"
       d="M 73.664754 104.75588 A 63.402599 63.402599 0 0 0 10.261906 168.15821 A 63.402599 63.402599 0 0 0 73.664754 231.56106 A 63.402599 63.402599 0 0 0 137.06709 168.15821 A 63.402599 63.402599 0 0 0 132.37383 144.23874 C 130.83546 140.64596 127.17025 133.55008 123.70821 129.96571 C 119.45871 125.56604 115.77418 128.56603 113.33985 132.95571 C 107.875 142.81018 112.4446 170.21666 116.52932 188.84894 C 107.32119 205.14075 91.955321 205.86201 86.629854 205.84325 C 68.294496 205.77865 55.07732 190.12109 50.045524 179.58284 L 71.005485 171.1725 A 4.0215993 4.0215993 0 0 1 69.642778 168.15821 A 4.0215993 4.0215993 0 0 1 73.664754 164.13675 A 4.0215993 4.0215993 0 0 1 77.686214 168.15821 A 4.0215993 4.0215993 0 0 1 77.661926 168.50134 L 98.628605 160.08842 C 99.594578 151.50703 99.80426 142.26545 102.22425 135.08219 C 105.35946 125.77605 111.80677 119.49497 116.76703 121.67888 A 63.402599 63.402599 0 0 0 73.664754 104.75588 z M 36.406047 129.28306 C 36.51399 129.28306 36.600695 129.28829 36.665462 129.29908 C 36.73023 129.29908 36.789256 129.30431 36.843229 129.3151 L 38.494808 129.57452 C 38.656727 129.6069 38.781038 129.69309 38.867395 129.83342 C 38.953752 129.97375 38.997103 130.16283 38.997103 130.40031 L 38.997103 142.70602 L 39.822892 142.70602 C 40.060373 142.70602 40.243711 142.61409 40.373246 142.43058 C 40.502781 142.23628 40.653735 142.13913 40.826449 142.13913 C 41.042338 142.13913 41.220453 142.21486 41.360783 142.36599 C 41.511907 142.51711 41.587642 142.71142 41.587642 142.9489 C 41.587642 143.05684 41.582417 143.154 41.571623 143.24035 C 41.560828 143.32671 41.544636 143.41289 41.523047 143.49925 L 41.377319 144.17931 C 41.301757 144.56792 41.188413 144.83273 41.037288 144.97306 C 40.896961 145.1026 40.670268 145.16737 40.357227 145.16737 L 38.997103 145.16737 L 38.997103 147.88761 L 39.563477 147.88761 C 40.254329 147.88761 40.729642 147.9738 40.988713 148.14651 C 41.247781 148.30843 41.377319 148.59466 41.377319 149.00486 C 41.377319 149.39346 41.2692 149.68492 41.053308 149.87922 C 40.837416 150.07353 40.513575 150.17068 40.081791 150.17068 L 34.851619 150.17068 C 34.333481 150.17068 33.982995 150.08972 33.799487 149.9278 C 33.615979 149.75509 33.524052 149.44744 33.524052 149.00486 C 33.524052 148.61625 33.615979 148.33525 33.799487 148.16253 C 33.99379 147.97902 34.301441 147.88761 34.722428 147.88761 L 36.60035 147.88761 L 36.60035 145.16737 L 29.039054 145.16737 C 28.769192 145.16737 28.558693 145.08066 28.407568 144.90795 C 28.256446 144.73524 28.180709 144.48713 28.180709 144.16329 L 28.180709 143.04605 C 28.180709 142.61427 28.337404 142.16087 28.650448 141.68593 C 28.715215 141.58877 28.758049 141.51878 28.779639 141.4756 L 35.612813 129.88199 C 35.753143 129.64451 35.877454 129.48782 35.9854 129.41226 C 36.093346 129.3259 36.233333 129.28306 36.406047 129.28306 z M 119.99268 130.78116 C 121.73076 130.82593 123.35973 133.11389 124.24048 138.79205 C 126.80265 155.3103 124.26188 169.99968 119.2196 183.50715 C 117.78226 178.09571 115.79761 169.18984 114.66225 161.20876 C 113.15247 150.59572 113.08276 147.4364 113.67782 142.3696 C 114.28527 137.19737 115.52801 134.15319 117.61453 132.0028 C 118.38979 131.20378 119.20263 130.76082 119.99268 130.78116 z M 36.60035 131.72788 L 30.479793 142.70602 L 36.60035 142.70602 L 36.60035 131.72788 z " /><path
       id="circle1"
       style="fill:#c83535;fill-opacity:1;stroke:none;stroke-width:0.265705"
       d="M 73.664754 141.92105 A 26.237471 26.237471 0 0 0 47.427079 168.15821 A 26.237471 26.237471 0 0 0 73.664754 194.39589 A 26.237471 26.237471 0 0 0 99.901912 168.15821 A 26.237471 26.237471 0 0 0 73.664754 141.92105 z M 73.664754 164.13675 A 4.0215993 4.0215993 0 0 1 77.686214 168.15821 A 4.0215993 4.0215993 0 0 1 73.664754 172.18019 A 4.0215993 4.0215993 0 0 1 69.642778 168.15821 A 4.0215993 4.0215993 0 0 1 73.664754 164.13675 z " /><path
       style="fill:#c83535;fill-opacity:1;stroke:none;stroke-width:0.264583"
       d="m 21.148068,29.135797 9.513163,-3.300486 -0.249616,65.219253 C 37.87627,88.239715 44.247396,80.362339 48.701585,67.379829 53.024418,54.780175 57.418855,38.368904 58.784693,19.428487 l 9.235813,-0.984598 C 68.049325,30.927197 66.327493,40.191403 62.757999,54.968403 60.154448,65.74659 54.324106,78.586244 50.18586,84.06474 41.909367,95.02173 31.520509,98.299484 21.716639,101.41365 Z"
       id="path3"
       sodipodi:nodetypes="cccsccsscc" /><path
       style="fill:#c83535;fill-opacity:1;stroke:none;stroke-width:0.264583"
       d="m 76.681853,17.885895 h 12.61034 C 88.157073,39.47481 87.464241,61.859843 89.684428,89.48831 80.278366,87.412245 76.764214,87.893909 71.837755,87.762478 73.91573,82.195857 76.442303,75.712345 77.491717,66.157599 78.714909,55.020632 78.1417,43.982578 76.681853,17.885895 Z"
       id="path4"
       sodipodi:nodetypes="ccccsc" /><path
       style="fill:#c83535;fill-opacity:1;stroke:none;stroke-width:0.264583"
       d="m 100.667,18.552694 9.40382,1.147286 c 0.68255,19.735387 10.42158,36.534099 13.6768,42.254163 0.72469,-12.404562 1.89072,-21.808605 -0.75267,-39.792891 l 14.00277,3.814481 c -4.71014,36.613933 -4.24229,77.973027 -2.91234,88.752877 -3.19048,-1.42298 -5.94469,-5.97827 -12.67898,-10.81587 1.93548,-21.30234 -7.57545,-38.925624 -12.16404,-48.752786 -0.53902,18.241544 0.50989,26.037276 3.55449,43.055577 -3.41311,-1.894455 -6.90669,-3.627974 -10.5413,-5.079439 C 100.83898,67.550051 99.358592,42.752174 100.667,18.552694 Z"
       id="path5"
       sodipodi:nodetypes="ccccccccccc" /><path
       style="fill:#c83535;fill-opacity:1;stroke:none;stroke-width:0.264583"
       d="m 198.35301,61.227812 c 5.93985,5.260762 10.86936,10.614804 15.18928,15.738411 -9.44696,17.738236 -10.53539,37.384087 -8.73702,58.413527 5.99916,0.13655 11.88978,-3.52489 18.48475,-7.05923 l -7.3649,17.23772 c -7.5164,-1.57948 -16.20517,-1.50236 -25.4168,-0.68641 z"
       id="path6"
       sodipodi:nodetypes="ccccccc" /><path
       style="fill:#c83535;fill-opacity:1;stroke:none;stroke-width:0.264583"
       d="m 153.22642,32.153426 15.19909,7.570128 c -14.74293,35.806199 -21.386,89.298946 -13.87578,89.407666 4.18755,0.0606 22.97642,-40.615078 28.52574,-80.121513 l 5.92274,4.442055 C 183.90206,151.46021 166.56257,201.55732 156.04561,234.9583 l -40.04028,-0.0277 c 13.0316,-7.1183 24.95335,-18.77117 36.31532,-43.64389 11.67747,-25.56337 22.09415,-59.16493 22.89629,-79.04243 -15.12018,41.98564 -28.41086,38.23178 -31.62379,6.2139 -3.3928,-33.810359 6.05004,-73.249252 9.63327,-86.304754 z"
       id="path7"
       sodipodi:nodetypes="ccsccccscsc" /><path
       style="display:inline;fill:#ffffff;fill-opacity:1;stroke-width:0.264583"
       d="m 196.11569,183.93154 c 1.97969,-0.61456 4.63678,-0.30874 3.35532,3.54358 -0.80478,2.41931 -3.2397,5.11472 -2.67082,13.64956 0.2617,3.92638 2.77909,3.65142 3.43909,3.8246 0.97576,0.25603 1.21382,1.59849 1.14151,2.91692 -0.0723,1.31842 -1.17434,2.43919 -2.62246,2.49162 -1.44812,0.0524 -4.50394,-1.77936 -5.30148,-5.59824 -0.93663,-4.48488 -0.13056,-12.23761 2.65885,-20.82804 z"
       id="path10"
       sodipodi:nodetypes="csssssscc" /><path
       style="display:inline;fill:#ffffff;fill-opacity:1;stroke-width:0.264583"
       d="m 112.43195,205.80572 c 4.4216,-1.9986 14.33952,-0.14229 11.22532,9.4129 -3.11421,9.5552 -3.15138,14.43896 -0.8419,14.30059 1.57338,-0.0943 2.53152,-2.82144 2.72075,-5.2078 0.19191,-2.42017 0.88706,-4.87506 1.898,-7.78316 1.01094,-2.9081 3.17137,-5.27958 5.53081,-7.49525 2.35944,-2.21567 4.27112,-3.859 6.85212,-3.97563 2.581,-0.11663 5.02885,1.23612 5.99853,1.83581 0.36491,0.22567 0.26955,0.86312 0.002,1.51794 -0.19371,0.47375 -1.08223,1.34009 -1.68208,0.80814 -1.96839,-1.74555 -5.03445,-0.002 -7.38183,2.10558 -2.34738,2.10775 -7.24322,9.66717 -6.83675,12.81023 0.32556,2.51748 2.32549,3.65836 4.66468,3.69066 2.33919,0.0323 6.07182,-1.63528 8.10964,-4.45166 2.03782,-2.81639 2.38082,-6.78157 2.50481,-8.36793 0.24798,-3.17271 1.08447,-6.02333 1.26285,-6.48763 0.17839,-0.46429 0.62564,-1.75292 2.4983,-1.99868 1.87265,-0.24576 2.20051,0.45026 2.28498,2.08586 0.0845,1.63559 -0.0748,2.41748 -0.90639,5.01721 -0.82812,2.58893 -2.55525,6.76349 -3.10646,8.89606 -1.03417,4.00111 0.0506,5.51487 0.93744,5.84181 1.77367,0.65388 6.33565,-1.97273 9.14327,-16.89561 -1.84532,0.0446 -2.61821,-1.32765 -2.80634,-3.39098 -0.0941,-1.03167 0.32149,-2.12842 1.716,-2.48711 1.60028,-0.41162 3.75762,-0.0956 4.11884,-0.004 0.87974,0.22302 0.45699,2.59041 0.0145,3.89262 1.33083,0.23056 3.33739,0.0525 4.218,-0.89183 0.98657,-1.05801 1.42303,-3.32683 2.50397,-3.51328 0.54047,-0.0932 1.66965,0.0344 2.19567,0.80385 0.74088,1.08374 0.44842,2.1811 0.0305,3.06836 -0.41794,0.88728 -3.85956,6.10283 -3.87459,11.04007 -0.009,3.03932 1.10538,5.31639 2.15792,7.13235 0.94011,1.62198 2.04299,2.11248 2.04995,2.71205 0.0129,1.11162 -2.63127,1.80833 -5.07478,1.04787 -2.44351,-0.76046 -1.84705,-10.32229 -0.95884,-19.12982 -1.20245,0.11354 -2.41485,0.0878 -3.63286,-0.0165 -4.43251,15.73095 -7.31373,19.71584 -10.67374,19.5633 -3.36001,-0.15254 -4.03303,-0.80069 -5.47802,-2.54508 -6.67577,3.41209 -13.81736,2.54553 -15.20096,0.78343 -1.85374,1.60391 -4.1477,1.84574 -6.17009,1.67238 -1.99499,-0.17101 -6.15862,-0.2825 -5.52295,-5.87018 0.35312,-3.55575 1.59209,-7.51452 2.42731,-10.91288 0.83067,-3.37986 0.47157,-6.32986 -0.88382,-6.80208 -2.71079,-0.94443 -5.2502,1.55655 -7.47186,3.61315 z"
       id="path11"
       transform="translate(22.038034,-21.5)"
       sodipodi:nodetypes="czsszzzssszsssszzzssscssscssssssszcczccscsscc" /><path
       style="display:inline;fill:#ffffff;fill-opacity:1;stroke-width:0.264583"
       d="m 247.05469,147.93515 c 1.11647,5.57481 1.40595,9.99514 1.65364,14.35365 -4.50857,2.24401 -11.85866,4.92233 -18.42699,6.80636 -6.50293,1.86528 -11.23043,2.1635 -15.7208,0.81694 -7.11777,-2.13445 -12.14842,-3.79181 -13.52682,-1.24023 -1.3784,2.55159 2.21545,3.91599 4.72943,4.24987 1.25699,0.16694 1.62707,1.95539 0.60315,3.99091 -0.87118,1.73189 -2.72611,3.18632 -4.65459,3.31821 -3.14299,0.21495 -5.62671,-1.02651 -5.60585,-5.87044 0.0208,-4.84393 1.73409,-6.57746 3.91913,-8.51628 1.09253,-0.96941 3.87645,-2.89023 6.73815,-3.02752 2.94692,-0.14137 5.68471,0.23994 9.74871,0.41476 7.94795,0.34189 21.54791,-4.58806 30.54284,-15.29623 z"
       id="path12"
       sodipodi:nodetypes="ccsszssszsssc" /><path
       style="display:inline;fill:#ffffff;fill-opacity:1;stroke-width:0.264583"
       d="m 215.65812,145.55148 c 1.73557,-0.31094 1.90841,0.73573 2.63093,3.42606 0.72252,2.69033 0.15325,3.52007 -0.90769,4.91723 -0.53047,0.69858 -2.61877,2.75392 -5.25211,5.23008 -3.73231,3.50953 -5.55513,6.23759 -7.93716,11.39128 -2.33406,5.0499 -4.2421,9.16895 -6.66355,14.27663 -2.57037,5.4218 -4.39764,12.97317 -5.53714,17.85584 -2.279,9.76535 -1.81062,18.27788 0.25725,21.21118 2.06787,2.9333 4.91598,3.29903 7.97465,0.37418 0.50072,-4.48742 0.88918,-8.5595 2.26845,-13.14298 1.37927,-4.58348 4.4283,-5.82512 5.91668,-5.75298 1.48838,0.0721 1.85073,0.50804 1.44993,1.94105 -0.4008,1.43301 -0.27727,0.93178 -3.96393,8.19682 -3.68668,7.26504 -3.03135,13.00949 0.51448,13.15467 2.27685,0.0932 3.35538,-0.29555 4.92232,-1.04669 2.00198,-0.95967 3.17578,-1.7357 4.1515,-3.02249 1.95272,-2.57525 3.38333,-5.95485 3.3442,-12.34785 -0.0193,-3.15995 0.0386,-4.40899 0.31571,-5.26187 0.27707,-0.85288 1.08639,-1.74517 2.93697,-1.72656 1.85057,0.0186 2.26859,0.40829 2.72648,1.86238 0.41361,1.31348 0.11537,5.97289 -1.39431,13.03625 -1.17762,5.50977 -4.96173,11.94433 -5.34672,13.73493 -0.38499,1.7906 0.56809,11.76382 -2.58082,16.17564 -2.62351,3.6757 -6.93357,6.2432 -12.69836,6.54831 -7.96498,0.42156 -14.39647,-2.92811 -14.25562,-7.0215 0.11337,-3.29482 3.06515,-6.29379 5.60845,-8.06115 2.32386,-1.61487 5.88281,-2.27168 9.90622,-2.34165 1.52815,-0.0266 2.96433,-0.14957 4.55059,0.39355 0.93693,0.3208 0.85737,1.33432 0.86528,1.98782 0.0225,1.8573 -1.50729,1.86853 -2.01181,1.49233 -1.68764,-1.25844 -4.03369,-0.89774 -6.25315,-0.59539 -1.88852,0.25727 -4.73305,1.31803 -6.7739,2.48366 -2.0677,1.18097 -3.07685,3.24354 -3.39881,4.94011 -0.62925,3.31577 4.41935,4.46035 8.56875,3.44249 3.92663,-0.96321 10.73113,-3.32128 12.20753,-10.31326 0.73223,-3.46773 1.23335,-6.60958 1.41261,-10.3187 0.0615,-1.27207 0.8259,-2.43184 1.77759,-3.45015 -4.36663,3.18577 -9.66449,2.80311 -11.59548,1.73773 -1.8737,-1.03377 -2.15353,-2.94767 -2.15353,-2.94767 0,0 -4.63798,4.27045 -9.77503,3.29501 -3.12527,-0.59344 -5.99457,-3.42341 -6.84079,-7.6799 -1.69243,-8.51298 -0.1533,-16.45049 3.95226,-28.69473 2.05278,-6.12212 7.23618,-18.95312 12.97935,-29.88981 7.27959,-13.86249 13.23394,-19.33443 14.10173,-19.4899 z"
       id="path13"
       transform="translate(22.038034,-21.5)"
       sodipodi:nodetypes="szssssszczzzzsssszzsszsssssssssssssscscsssss" /></g></svg>
